<?xml version="1.0" standalone="no"?>
<!DOCTYPE svg PUBLIC "-//W3C//DTD SVG 20010904//EN"
 "http://www.w3.org/TR/2001/REC-SVG-20010904/DTD/svg10.dtd">
<svg version="1.0" xmlns="http://www.w3.org/2000/svg"
 width="80.000000pt" height="80.000000pt" viewBox="0 0 1080.000000 1080.000000"
 preserveAspectRatio="xMidYMid meet">

<g transform="translate(0.000000,1080.000000) scale(0.100000,-0.100000)"
fill="#ff4848" stroke="none">
<path d="M5533 8084 c-815 -111 -1422 -718 -1529 -1527 -17 -132 -19 -402 -4
-543 45 -409 201 -755 465 -1032 278 -292 644 -469 1090 -528 90 -12 170 -15
320 -11 253 6 384 29 589 104 297 107 371 176 370 343 0 87 -39 173 -106 235
-54 51 -90 69 -159 79 -59 9 -118 -5 -232 -54 -300 -128 -710 -132 -1015 -9
-350 140 -569 417 -647 819 -22 113 -31 399 -16 513 54 402 250 708 564 877
178 96 420 147 652 137 194 -9 329 -40 498 -114 115 -51 204 -57 281 -19 62
31 104 74 143 149 24 45 28 63 28 142 0 100 -17 145 -76 204 -89 89 -406 203
-659 237 -132 17 -421 16 -557 -2z"/>
<path d="M8850 2921 c-124 -44 -174 -172 -108 -280 26 -41 97 -75 191 -91 76
-14 127 -43 141 -82 22 -64 -39 -112 -141 -112 -54 0 -70 5 -122 38 -65 40
-92 39 -106 -4 -10 -32 18 -65 82 -97 51 -24 69 -28 148 -28 73 0 98 4 131 22
85 45 123 116 111 205 -11 83 -67 127 -200 158 -145 33 -187 71 -152 139 30
59 139 66 239 16 57 -29 78 -28 95 3 16 30 -9 64 -69 95 -76 38 -166 44 -240
18z"/>
<path d="M1861 2915 c-97 -27 -172 -91 -213 -180 -19 -41 -23 -67 -23 -145 0
-84 3 -102 28 -152 59 -120 185 -187 329 -175 87 7 142 33 146 68 2 15 -5 32
-17 43 -19 17 -23 18 -61 2 -62 -25 -146 -21 -208 10 -72 36 -103 90 -110 190
-4 65 -2 80 23 129 45 92 144 139 242 115 88 -21 103 -22 118 -10 8 7 15 26
15 42 0 25 -6 32 -45 49 -61 27 -156 33 -224 14z"/>
<path d="M2610 2910 c-11 -11 -20 -24 -20 -28 0 -5 56 -141 124 -303 173 -411
160 -411 334 -3 67 159 122 297 122 307 0 9 -11 24 -25 33 -51 33 -62 17 -160
-240 -49 -129 -92 -236 -95 -236 -3 0 -50 106 -104 235 -109 261 -127 284
-176 235z"/>
<path d="M3881 2915 c-97 -27 -172 -91 -213 -180 -19 -41 -23 -67 -23 -145 0
-84 3 -102 28 -152 59 -120 185 -187 329 -175 87 7 142 33 146 68 2 15 -5 32
-17 43 -19 17 -23 18 -61 2 -62 -25 -146 -21 -208 10 -72 36 -103 90 -110 190
-4 65 -2 80 23 129 45 92 144 139 242 115 88 -21 103 -22 118 -10 8 7 15 26
15 42 0 25 -6 32 -45 49 -61 27 -156 33 -224 14z"/>
<path d="M4674 2916 c-18 -14 -19 -31 -22 -310 -3 -286 -2 -296 18 -316 22
-22 64 -27 77 -7 4 6 10 59 13 117 l5 105 108 3 c108 3 108 3 137 -27 24 -23
30 -38 30 -71 0 -51 21 -103 51 -124 33 -23 76 -21 89 4 11 21 8 32 -20 65
-10 11 -21 42 -25 70 -8 54 -25 94 -49 114 -14 12 -12 17 15 49 74 84 78 181
11 271 -44 59 -86 71 -263 71 -118 0 -160 -3 -175 -14z m347 -112 c33 -35 35
-128 3 -171 -21 -28 -22 -28 -143 -31 l-121 -3 0 116 0 115 118 0 c114 0 119
-1 143 -26z"/>
<path d="M5878 2913 c-9 -10 -70 -150 -137 -310 -103 -247 -120 -296 -111
-313 8 -15 19 -20 38 -18 23 3 33 15 65 81 l37 77 133 0 c72 0 137 -4 143 -8
6 -4 22 -32 34 -62 31 -73 51 -94 84 -86 15 4 28 15 31 29 7 26 -227 594 -253
615 -22 17 -46 15 -64 -5z m84 -280 l47 -108 -96 -3 c-53 -1 -97 -1 -99 1 -6
5 87 217 95 217 4 0 28 -48 53 -107z"/>
<path d="M6754 2916 c-18 -14 -19 -31 -22 -306 -2 -252 -1 -295 13 -316 19
-29 55 -31 78 -6 14 15 17 41 17 140 l0 122 103 0 c107 0 149 12 155 43 2 10
-4 27 -14 38 -15 17 -31 19 -131 19 l-113 0 0 90 0 90 131 0 c72 0 139 5 150
10 12 7 19 21 19 40 0 19 -7 33 -19 40 -32 16 -343 13 -367 -4z"/>
<path d="M7687 2912 c-21 -23 -22 -46 -1 -66 12 -12 37 -16 105 -16 l89 0 0
-270 c0 -256 1 -270 19 -280 31 -16 59 -12 75 12 14 19 16 63 16 280 l0 258
81 0 c96 0 119 10 119 50 0 19 -7 33 -19 40 -12 6 -108 10 -244 10 -204 0
-225 -2 -240 -18z"/>
</g>
</svg>
